# xmcd CD database file
#
# Track frame offsets:
#	150
#	26673
#	54805
#
# Disc length: 1081 seconds
#
# Revision: 0
# Processed by: cddbd v1.5PL3 Copyright (c) Steve Scherf et al.
# Submitted via: CDex 1.50beta9
#
DISCID=19043703
DTITLE=大泉洋 with STARDUST REVUE - 本日のスープ（全国版）
DYEAR=2004
DGENRE=JPop
TTITLE0=本日のスープ
TTITLE1=本日のスープ（Live Version）
TTITLE2=本日のスープ（instrumental）
EXTD=YEAR: 2004
EXTT0=
EXTT1=
EXTT2=
PLAYORDER=
